<svg width="1658" height="353" viewBox="0 0 1658 353" fill="none" xmlns="http://www.w3.org/2000/svg">
<path d="M438.587 131.529C444.099 110.877 441.821 95.0767 431.751 84.1265C421.681 73.1762 404.077 67.6643 378.939 67.5908H282.614L224.547 285.457H271.185L294.669 197.267H325.466C331.101 196.985 336.715 198.135 341.784 200.611C343.841 201.898 345.556 203.662 346.785 205.754C348.013 207.846 348.718 210.204 348.84 212.627L357.256 285.457H407.238L399.079 217.808C397.462 202.705 390.516 193.813 378.462 191.13C393.046 187.107 406.356 179.416 417.124 168.789C427.529 158.547 434.948 145.667 438.587 131.529V131.529ZM393.934 132.3C391.923 141.233 386.451 149.003 378.719 153.907C371.369 158.537 360.637 160.815 347.002 160.815H303.709L318.924 103.896H362.254C375.852 103.896 385.187 106.211 390.332 110.804C395.477 115.397 396.58 122.673 393.934 132.3Z" fill="white"/>
<path d="M573.174 129.689L567.257 151.736C564.791 143.856 559.573 137.126 552.556 132.775C544.372 127.864 534.936 125.438 525.397 125.793C512.015 125.797 498.866 129.293 487.249 135.935C474.606 143.185 463.685 153.089 455.239 164.965C445.93 177.804 439.111 192.275 435.136 207.627C430.965 221.289 430.083 235.743 432.563 249.811C434.456 260.922 440.401 270.937 449.248 277.921C458.865 284.797 470.515 288.239 482.324 287.696C492.87 287.719 503.296 285.462 512.887 281.08C522.479 276.697 531.009 270.292 537.892 262.304L531.792 285.307H577.253L618.708 129.689H573.174ZM552.519 206.855C549.709 219.526 543.451 231.174 534.438 240.514C530.556 244.313 525.958 247.302 520.911 249.308C515.863 251.314 510.467 252.297 505.037 252.199C493.46 252.199 485.669 248.525 481.479 240.698C477.289 232.871 477.179 221.957 481.001 207.627C483.908 194.842 490.263 183.099 499.377 173.673C503.271 169.76 507.905 166.663 513.01 164.562C518.116 162.461 523.588 161.398 529.109 161.437C540.428 161.437 548.146 165.369 552.115 173.196C556.084 181.023 556.488 192.083 552.593 206.818L552.519 206.855Z" fill="white"/>
<path d="M780.986 129.794H650.041L640.376 166.099H716.598L616.377 253.517L607.814 285.596H743.059L752.725 249.292H670.953L772.828 160.624L780.986 129.794Z" fill="white"/>
<path d="M924.301 135.517C912.141 128.569 898.272 125.182 884.279 125.742C868.495 125.606 852.873 128.943 838.523 135.517C824.566 142.024 812.302 151.67 802.691 163.701C792.652 176.321 785.4 190.923 781.412 206.547C777.123 220.442 776.59 235.225 779.868 249.392C782.876 261.153 790.351 271.277 800.706 277.613C811.242 284.105 824.717 287.351 841.133 287.351C856.747 287.487 872.198 284.162 886.374 277.613C900.289 271.105 912.495 261.442 922.022 249.392C932.082 236.781 939.347 222.176 943.338 206.547C947.636 192.652 948.156 177.863 944.845 163.701C941.951 151.98 934.575 141.861 924.301 135.517V135.517ZM897.766 206.473C893.687 221.759 887.697 233.224 879.611 240.794C871.809 248.226 861.389 252.28 850.615 252.075C826.849 252.075 819.021 236.874 827.13 206.473C831.124 191.383 837.249 180.004 845.506 172.336C853.408 164.779 863.974 160.645 874.907 160.835C886.227 160.835 893.944 164.509 897.913 172.336C901.883 180.163 901.772 191.371 897.766 206.473Z" fill="white"/>
<path d="M1419.31 129.71L1413.39 151.758C1410.93 143.878 1405.71 137.148 1398.69 132.797C1390.52 127.841 1381.08 125.376 1371.53 125.705C1358.13 125.734 1344.96 129.268 1333.35 135.957C1320.69 143.205 1309.76 153.109 1301.3 164.986C1292.01 177.834 1285.19 192.302 1281.2 207.648C1277.06 221.317 1276.18 235.763 1278.62 249.832C1280.52 260.943 1286.46 270.959 1295.31 277.943C1305.05 284.874 1316.85 288.318 1328.79 287.717C1339.1 287.678 1349.28 285.449 1358.67 281.177C1368.35 276.832 1376.95 270.394 1383.84 262.326L1377.74 285.329H1423.2L1464.7 129.71H1419.31ZM1398.54 206.877C1395.74 219.544 1389.5 231.193 1380.5 240.536C1376.61 244.323 1372.01 247.305 1366.96 249.31C1361.92 251.315 1356.53 252.304 1351.1 252.221C1339.48 252.221 1331.69 248.546 1327.5 240.719C1323.31 232.893 1323.24 221.979 1327.03 207.648C1329.95 194.87 1336.3 183.131 1345.4 173.695C1349.3 169.784 1353.95 166.688 1359.06 164.588C1364.17 162.487 1369.64 161.423 1375.17 161.459C1386.49 161.459 1394.16 165.378 1398.18 173.217C1402.44 180.824 1402.55 192.105 1398.54 206.84V206.877Z" fill="white"/>
<path d="M1086.06 171.569L1097.67 129.201C1092.77 126.984 1087.43 125.94 1082.05 126.151C1071.55 126.163 1061.22 128.871 1052.06 134.015C1043.71 138.59 1036.46 144.936 1030.82 152.608L1036.81 129.789H991.387L949.564 285.408H995.65L1017.3 204.163C1019.83 193.322 1025.77 183.575 1034.24 176.346C1042.95 169.544 1053.77 166.019 1064.82 166.388C1072.21 166.357 1079.51 168.136 1086.06 171.569Z" fill="white"/>
<path d="M1246.73 136.334C1237.33 129.149 1225.7 125.495 1213.88 126.009C1202.37 126.022 1191.04 128.767 1180.8 134.019C1170.54 139.061 1161.7 146.575 1155.07 155.883L1155.26 154.817L1163.01 129.867H1117.81L1106.27 173.117C1106.27 173.595 1106.01 174.109 1105.9 174.587L1058.49 352.804H1104.8L1128.72 262.997C1131.01 270.921 1136.28 277.651 1143.42 281.774C1151.71 286.537 1161.17 288.88 1170.73 288.536C1184.15 288.572 1197.37 285.236 1209.17 278.835C1221.73 271.914 1232.57 262.257 1240.89 250.577C1250.04 237.802 1256.73 223.434 1260.62 208.209C1264.82 194.342 1265.78 179.695 1263.42 165.4C1261.48 154.038 1255.57 143.735 1246.73 136.334V136.334ZM1213.99 207.474C1211.16 219.945 1204.94 231.39 1196.01 240.546C1188.11 248.1 1177.54 252.222 1166.61 252.01C1155.22 252.01 1147.5 248.078 1143.42 240.325C1139.34 232.572 1139.12 221.401 1143.13 206.666C1145.99 193.897 1152.36 182.178 1161.51 172.823C1165.39 169.027 1169.99 166.035 1175.04 164.018C1180.08 162 1185.47 160.996 1190.91 161.064C1201.93 161.064 1209.61 165.18 1213.62 173.301C1217.62 181.421 1217.88 192.923 1213.99 207.474Z" fill="white"/>
<path d="M1657.98 124.681H1610.2L1602.85 140.041C1602.26 140.813 1601.71 141.584 1601.05 142.54L1600.28 143.789L1541.48 226.026L1529.28 129.862H1481.06L1505.57 277.36L1451.36 352.8H1497.78L1511.19 333.655C1511.6 333.067 1512 332.589 1512.37 331.965L1528.06 309.586L1528.58 308.999L1598.66 209.013L1657.98 124.681Z" fill="white"/>
<path d="M106.605 92.4526L92.6391 143.309L171.434 92.1954L119.982 285.442H172.206L248.244 0L106.605 92.4526Z" fill="white"/>
<path d="M21.6833 204.13L0 285.412H107.13L150.974 120.055L21.6833 204.13Z" fill="white"/>
</svg>
